<svg width="519" height="293" xmlns="http://www.w3.org/2000/svg"><g fill="#283278" fill-rule="evenodd"><path d="M360.667 198.178V137h-106v43.05h60.776v15.655a84.827 84.827 0 0 1-.724 10.025l43.27 16.27c1.631-7.568 2.527-15.509 2.678-23.822"/><path d="M193.228 152.385c0-29.476 1.093-49.561 3.283-60.256 1.915-10.144 5.814-18.437 11.698-24.883 4.788-6.169 11.083-11.31 18.88-15.423 7.661-3.975 16.83-6.098 27.501-6.375 14.501.277 26.815 4.456 36.942 12.544 9.713 8.503 16.418 18.785 20.112 30.847h48.023c-4.791-25.089-16.283-46.133-34.477-63.133C306.99 8.843 283.457.276 254.59 0c-23.533.276-43.169 5.896-58.9 16.863-16.008 10.831-27.638 23.17-34.889 37.017-4.515 7.268-7.869 16.795-10.056 28.584-2.052 11.793-3.078 35.098-3.078 69.92 0 34.276 1.026 57.446 3.078 69.51.367 2.162.767 4.19 1.197 6.106l44.562-15.804c-2.185-10.427-3.276-30.362-3.276-59.811M362.852 252.445l-38.212-8.029a1.109 1.109 0 0 0-1.191.534l-4.627 8.068a1.109 1.109 0 0 1-1.839.128l-7.897-10.182a1.108 1.108 0 0 0-.762-.423l-10.86-1.137c-1.048-.11-1.367-1.48-.478-2.042l17.586-11.101a1.111 1.111 0 0 1 1.059-.069l47.915 22.161c1.199.554.599 2.364-.694 2.092Zm-97.563 17.679-37.092-6.927a1.192 1.192 0 0 0-.837.153l-25.602 15.528c-.7.426-1.611.034-1.784-.768l-3.391-15.784a1.192 1.192 0 0 0-1.307-.934l-77.214 9.199c-1.402.167-1.879-1.811-.555-2.301l105.888-39.226a1.192 1.192 0 0 1 1.226.245l41.699 38.77c.875.813.144 2.264-1.031 2.045Zm45.577-55.504-35.851 23.518 22.068 34.976-71.479-60.927L0 292.032h518.083L310.866 214.62Z"/></g></svg>