<svg xmlns="http://www.w3.org/2000/svg" viewBox="0 0 490 490" style="enable-background:new 0 0 490 490" xml:space="preserve"><g fill="#283278"><path d="M405.709 91.159c-27.928 7.882-84.922 32.9-138.313 55.853L157.153 51.899a8.124 8.124 0 0 0-7.494-1.672l-43.865 12.268a8.12 8.12 0 0 0-4.873 11.835l66.225 116.528a14859.552 14859.552 0 0 0-97.836 43.826l-29.869-38.497a3.794 3.794 0 0 0-4.015-1.327L2.77 203.996a3.788 3.788 0 0 0-2.407 5.271l56.828 120.171a3.793 3.793 0 0 0 4.448 2.03l377.712-105.646c36.806-10.294 58.373-48.611 48.079-85.416-10.137-36.249-47.584-58.881-81.721-49.247zM370.603 440.074H119.397c-8.971 0-16.244-7.272-16.244-16.244 0-8.971 7.273-16.244 16.244-16.244h251.206c8.972 0 16.244 7.273 16.244 16.244 0 8.972-7.272 16.244-16.244 16.244z"/></g></svg>