<svg xmlns="http://www.w3.org/2000/svg" viewBox="0 0 490 490" style="enable-background:new 0 0 490 490" xml:space="preserve"><g fill="#283278"><path d="M148.8 221.024H32.723a7.07 7.07 0 0 0-7.07 7.07v52.785a7.072 7.072 0 0 0 7.07 7.072H148.8a7.072 7.072 0 0 0 7.071-7.072v-52.785a7.07 7.07 0 0 0-7.071-7.07zM376.883 240.743H335.02a3.03 3.03 0 0 0-3.029 3.031v41.862a3.03 3.03 0 0 0 3.029 3.03h41.863a3.03 3.03 0 0 0 3.028-3.03v-41.862a3.03 3.03 0 0 0-3.028-3.031zM309.728 240.743h-41.86a3.029 3.029 0 0 0-3.031 3.031v41.862a3.029 3.029 0 0 0 3.031 3.03h41.86a3.03 3.03 0 0 0 3.033-3.03v-41.862a3.031 3.031 0 0 0-3.033-3.031zM242.575 240.743h-41.86a3.03 3.03 0 0 0-3.031 3.031v41.862a3.03 3.03 0 0 0 3.031 3.03h41.86a3.03 3.03 0 0 0 3.029-3.03v-41.862a3.03 3.03 0 0 0-3.029-3.031zM309.728 177.951h-41.86a3.029 3.029 0 0 0-3.031 3.03v41.862a3.029 3.029 0 0 0 3.031 3.03h41.86a3.03 3.03 0 0 0 3.033-3.03v-41.862a3.031 3.031 0 0 0-3.033-3.03zM242.575 177.951h-41.86a3.03 3.03 0 0 0-3.031 3.03v41.862a3.03 3.03 0 0 0 3.031 3.03h41.86a3.03 3.03 0 0 0 3.029-3.03v-41.862a3.029 3.029 0 0 0-3.029-3.03zM109.627 150.818h-37.73a4.041 4.041 0 0 0-4.04 4.041v47.854a4.041 4.041 0 0 0 4.04 4.041h37.73a4.04 4.04 0 0 0 4.04-4.041v-47.854a4.041 4.041 0 0 0-4.04-4.041zM109.627 117.868H96.822V73.976a6.06 6.06 0 0 0-12.122 0v43.892H71.897a4.04 4.04 0 0 0-4.04 4.041v10.6a4.04 4.04 0 0 0 4.04 4.04h37.73a4.04 4.04 0 0 0 4.04-4.04v-10.6a4.04 4.04 0 0 0-4.04-4.041zM489.682 291.031a2.52 2.52 0 0 0-2.205-1.296h-80.53c-.776 0-1.511.358-1.989.97l-10.678 13.662H2.525a2.527 2.527 0 0 0-2.342 3.474s34.207 84.507 45.63 112.668a2.527 2.527 0 0 0 2.341 1.576H408.49c.876 0 1.766-.303 2.315-1.195 19.639-31.866 78.817-127.3 78.817-127.3a2.53 2.53 0 0 0 .06-2.559zm-160.861 63.215c-5.474 0-9.915-4.439-9.915-9.915 0-5.477 4.441-9.915 9.915-9.915 5.477 0 9.916 4.439 9.916 9.915 0 5.475-4.438 9.915-9.916 9.915zm48.062 0c-5.478 0-9.916-4.439-9.916-9.915 0-5.477 4.438-9.915 9.916-9.915 5.474 0 9.912 4.439 9.912 9.915 0 5.475-4.439 9.915-9.912 9.915z"/></g></svg>