<svg height="1024" width="1024" xmlns="http://www.w3.org/2000/svg" viewBox="0 0 48 48"><path fill="#283278" d="m39.2 38.6-2.7-16.2c-.3-1.8-1.8-3.1-3.6-3.1H15.1c-1.8 0-3.3 1.3-3.6 3.1L8.8 38.6c-.2 1.1.1 2.1.8 2.9.7.8 1.7 1.3 2.8 1.3h23.1c1.1 0 2.1-.5 2.8-1.3.7-.8 1-1.9.9-2.9zM24 37.9c-3.8 0-6.9-3.1-6.9-6.9s3.1-6.9 6.9-6.9 6.9 3.1 6.9 6.9-3.1 6.9-6.9 6.9z"/><path fill="#283278" d="M24 35.9c-2.7 0-4.9-2.2-4.9-4.9s2.2-4.9 4.9-4.9 4.9 2.2 4.9 4.9-2.2 4.9-4.9 4.9zM29.9 21.3c-.6 0-1-.4-1-1v-2.9c0-.6.4-1 1-1s1 .4 1 1v2.9c0 .5-.5 1-1 1zM18.1 21.3c-.6 0-1-.4-1-1v-2.9c0-.6.4-1 1-1s1 .4 1 1v2.9c0 .5-.4 1-1 1z"/><path fill="#283278" d="M45.7 8c-1.9-2-5.6-2.8-12.3-2.8H14.6C7.9 5.2 4.2 6 2.3 8 .5 9.8.5 12.3.5 15.1v.5c0 .8.2 1.5.6 2.2l.3.5h11.2l.3-.5c.4-.9.6-3.1.6-3.5v-.8c0-.4.6-.9 1.4-.9h18.4c.8 0 1.4.5 1.4.9v.8c0 .3.1 2.6.6 3.5l.3.5h11.2l.3-.5c.4-.7.6-1.4.6-2.2v-.5c-.2-2.9-.2-5.3-2-7.1z"/></svg>