<svg width="250" height="141" xmlns="http://www.w3.org/2000/svg"><g fill="#FFF" fill-rule="evenodd"><path d="M175 95.62V66.045h-51.47v20.813h29.51v7.568a40.835 40.835 0 0 1-.351 4.847l21.01 7.866c.793-3.66 1.227-7.498 1.301-11.517"/><path d="M92.711 73.568c0-14.23.53-23.927 1.595-29.09.93-4.897 2.823-8.901 5.68-12.013 2.325-2.978 5.381-5.46 9.167-7.446 3.72-1.92 8.172-2.944 13.354-3.078 7.041.134 13.02 2.152 17.938 6.056 4.716 4.105 7.972 9.069 9.766 14.892h23.318c-2.326-12.112-7.906-22.271-16.74-30.479C147.95 4.27 136.523.133 122.506 0c-11.427.133-20.962 2.847-28.6 8.141-7.773 5.23-13.42 11.186-16.941 17.87-2.193 3.51-3.821 8.11-4.883 13.8-.997 5.694-1.495 16.945-1.495 33.757 0 16.547.498 27.733 1.495 33.557.178 1.044.372 2.023.581 2.948l21.638-7.63c-1.061-5.033-1.59-14.658-1.59-28.875M175.094 121.974l-18.44-3.837a.537.537 0 0 0-.574.256l-2.233 3.855a.538.538 0 0 1-.887.061l-3.811-4.866a.536.536 0 0 0-.368-.202l-5.24-.543a.53.53 0 0 1-.231-.976l8.486-5.305a.54.54 0 0 1 .511-.033l23.121 10.59c.579.265.29 1.13-.334 1Zm-47.08 8.45-17.898-3.311a.58.58 0 0 0-.404.073l-12.354 7.421a.576.576 0 0 1-.86-.367l-1.637-7.543a.575.575 0 0 0-.63-.447l-37.26 4.397c-.677.08-.907-.866-.268-1.1l51.096-18.747a.58.58 0 0 1 .591.118l20.122 18.528c.422.389.07 1.082-.497.977Zm21.994-26.526-17.3 11.239 10.649 16.715-34.492-29.117L0 140.893h250l-99.992-36.995Z"/></g></svg>