<svg width="579" height="105" xmlns="http://www.w3.org/2000/svg"><g fill="#FFF" fill-rule="evenodd"><text font-family="PingFangSC-Semibold, PingFang SC" font-size="38" font-weight="500" letter-spacing=".6">
    <tspan x="0" y="40">深圳市冰河国际货运代理有限公司</tspan>
</text><path d="M52 100.954C45.19 103.651 37.577 105 29.157 105c-4.262 0-8.173-.512-11.732-1.532-3.561-1.02-6.627-2.465-9.2-4.335-2.572-1.868-4.587-4.112-6.042-6.733C.728 89.78 0 86.872 0 83.673c0-3.274.728-6.25 2.183-8.93 1.455-2.676 3.47-4.96 6.041-6.848 2.574-1.887 5.64-3.342 9.2-4.364 3.56-1.02 7.47-1.531 11.733-1.531 4.21 0 8.16.376 11.85 1.127 3.69.751 6.99 2.09 9.9 4.016l-7.249 5.433c-1.767-1.271-3.912-2.254-6.432-2.947-2.522-.693-5.184-1.04-7.991-1.04-2.859 0-5.445.375-7.757 1.127-2.313.75-4.301 1.79-5.964 3.12-1.664 1.33-2.95 2.88-3.859 4.653-.91 1.772-1.365 3.68-1.365 5.721 0 2.197.455 4.22 1.365 6.069.908 1.85 2.195 3.449 3.86 4.797 1.662 1.35 3.65 2.409 5.963 3.179 2.312.771 4.898 1.156 7.757 1.156 2.495 0 4.845-.173 7.055-.52 2.209-.347 4.171-.886 5.887-1.619V86.62H30.872v-6.588H52v20.922M63 63h9.737v34.398H96V104H63V63M134.3 88.365l-8.455-16.679-8.61 16.679H134.3ZM121.89 63h8.454L154 104h-11.17l-5.118-9.381H113.9L108.937 104H98l23.89-41ZM197.245 72.634c-1.997-1.618-3.93-2.697-5.798-3.237a20.305 20.305 0 0 0-5.646-.808c-2.816 0-5.363.375-7.641 1.127-2.28.75-4.238 1.79-5.876 3.12-1.64 1.33-2.906 2.88-3.802 4.653-.896 1.772-1.343 3.68-1.343 5.721 0 2.197.447 4.22 1.343 6.069.896 1.85 2.163 3.449 3.802 4.797 1.638 1.35 3.596 2.409 5.876 3.179 2.278.771 4.825 1.156 7.64 1.156 2.202 0 4.341-.395 6.414-1.185 2.074-.789 4.006-2.052 5.799-3.786L206 97.717c-2.457 2.543-5.453 4.393-8.986 5.548-3.532 1.157-7.295 1.735-11.29 1.735-4.199 0-8.052-.512-11.558-1.532-3.508-1.02-6.529-2.465-9.063-4.335-2.534-1.868-4.52-4.112-5.952-6.733-1.434-2.62-2.151-5.528-2.151-8.727 0-3.274.717-6.25 2.15-8.93 1.434-2.676 3.419-4.96 5.953-6.848 2.534-1.887 5.555-3.342 9.063-4.364 3.506-1.02 7.36-1.531 11.559-1.531 3.686 0 7.104.491 10.252 1.474 3.15.982 6.08 2.65 8.794 4.998l-7.526 4.162M235 63h9.737v34.398H268V104h-33V63M283.194 83.212c0 2.196.451 4.219 1.352 6.068.9 1.85 2.175 3.448 3.823 4.797 1.645 1.35 3.617 2.408 5.906 3.178 2.292.772 4.854 1.157 7.685 1.157 2.831 0 5.406-.385 7.724-1.157 2.317-.77 4.298-1.829 5.947-3.178 1.648-1.349 2.921-2.948 3.823-4.797.9-1.85 1.352-3.872 1.352-6.068 0-2.042-.452-3.95-1.352-5.722-.902-1.772-2.175-3.323-3.823-4.652-1.65-1.33-3.63-2.37-5.947-3.12-2.318-.752-4.893-1.128-7.724-1.128-2.831 0-5.393.376-7.685 1.128-2.29.75-4.26 1.79-5.906 3.12-1.648 1.329-2.923 2.88-3.823 4.652-.901 1.772-1.352 3.68-1.352 5.722ZM273 83.674c0-3.274.72-6.25 2.163-8.929 1.44-2.677 3.437-4.96 5.984-6.848 2.55-1.887 5.587-3.342 9.114-4.364 3.525-1.02 7.401-1.53 11.623-1.53 4.272-.039 8.185.433 11.74 1.415 3.551.983 6.614 2.418 9.19 4.305 2.574 1.889 4.582 4.162 6.023 6.82 1.441 2.659 2.163 5.625 2.163 8.9 0 3.199-.722 6.107-2.163 8.727-1.441 2.62-3.449 4.874-6.023 6.762-2.576 1.887-5.639 3.361-9.19 4.42-3.555 1.06-7.468 1.608-11.74 1.648-4.222 0-8.098-.512-11.623-1.532-3.527-1.02-6.564-2.465-9.114-4.335-2.547-1.868-4.543-4.112-5.984-6.732-1.442-2.62-2.163-5.528-2.163-8.727ZM390 100.954c-6.81 2.697-14.422 4.046-22.842 4.046-4.263 0-8.174-.512-11.733-1.532-3.562-1.02-6.627-2.465-9.2-4.335-2.573-1.868-4.588-4.112-6.042-6.733-1.455-2.62-2.183-5.528-2.183-8.727 0-3.274.728-6.25 2.183-8.93 1.454-2.676 3.469-4.96 6.042-6.848 2.573-1.887 5.638-3.342 9.2-4.364 3.559-1.02 7.47-1.531 11.733-1.531 4.21 0 8.159.376 11.85 1.127 3.69.751 6.99 2.09 9.9 4.016l-7.25 5.433c-1.768-1.271-3.911-2.254-6.432-2.947-2.52-.693-5.183-1.04-7.99-1.04-2.86 0-5.445.375-7.758 1.127-2.313.75-4.302 1.79-5.963 3.12-1.664 1.33-2.952 2.88-3.86 4.653-.91 1.772-1.363 3.68-1.363 5.721 0 2.197.454 4.22 1.364 6.069.907 1.85 2.195 3.449 3.859 4.797 1.661 1.35 3.65 2.409 5.963 3.179 2.313.771 4.899 1.156 7.757 1.156 2.495 0 4.846-.173 7.056-.52 2.209-.347 4.171-.886 5.886-1.619V86.62h-11.304v-6.588H390v20.922M400 104h10V63h-10zM449.57 71.826c-1.033-1.118-2.413-1.937-4.14-2.457-1.73-.52-3.549-.78-5.457-.78-1.135 0-2.232.097-3.29.288-1.058.194-2.012.501-2.862.926-.852.423-1.537.973-2.051 1.646-.517.675-.775 1.474-.775 2.4 0 1.386.645 2.446 1.936 3.177 1.289.733 2.888 1.369 4.798 1.907a109.62 109.62 0 0 0 6.269 1.561c2.27.502 4.358 1.195 6.268 2.08 1.909.887 3.508 2.063 4.799 3.526 1.289 1.465 1.935 3.41 1.935 5.838 0 2.196-.543 4.112-1.626 5.75-1.083 1.638-2.542 2.996-4.372 4.075-1.833 1.08-3.96 1.888-6.386 2.427-2.425.54-4.979.81-7.662.81-3.405 0-6.681-.425-9.829-1.271-3.147-.848-5.856-2.274-8.125-4.278l7.352-5.317c1.186 1.35 2.747 2.399 4.682 3.15 1.935.751 3.986 1.127 6.153 1.127 1.133 0 2.27-.116 3.405-.347a12.524 12.524 0 0 0 3.096-1.04c.928-.462 1.675-1.05 2.245-1.763.567-.713.85-1.532.85-2.456 0-1.503-.645-2.659-1.934-3.468-1.29-.81-2.89-1.493-4.798-2.052-1.91-.558-4-1.088-6.27-1.589-2.27-.5-4.36-1.185-6.269-2.051-1.908-.868-3.51-2.023-4.798-3.468-1.29-1.445-1.934-3.381-1.934-5.81 0-2.118.58-3.948 1.741-5.49 1.16-1.54 2.682-2.822 4.565-3.843 1.884-1.02 4.037-1.782 6.463-2.283 2.425-.5 4.901-.751 7.43-.751 2.889 0 5.688.328 8.397.982 2.709.656 5.147 1.734 7.313 3.237l-7.12 5.607M477.663 69.602H461V63h43v6.602h-16.662V104h-9.675V69.602M510 104h10V63h-10zM570.245 72.634c-1.997-1.618-3.93-2.697-5.8-3.237a20.293 20.293 0 0 0-5.644-.808c-2.816 0-5.363.375-7.642 1.127-2.279.75-4.237 1.79-5.875 3.12-1.64 1.33-2.906 2.88-3.802 4.653-.896 1.772-1.343 3.68-1.343 5.721 0 2.197.447 4.22 1.343 6.069.896 1.85 2.163 3.449 3.802 4.797 1.638 1.35 3.596 2.409 5.875 3.179 2.279.771 4.826 1.156 7.642 1.156 2.201 0 4.34-.395 6.413-1.185 2.075-.789 4.006-2.052 5.798-3.786L579 97.717c-2.457 2.543-5.453 4.393-8.986 5.548-3.532 1.157-7.296 1.735-11.29 1.735-4.198 0-8.052-.512-11.558-1.532-3.508-1.02-6.529-2.465-9.063-4.335-2.535-1.868-4.52-4.112-5.952-6.733-1.434-2.62-2.151-5.528-2.151-8.727 0-3.274.717-6.25 2.15-8.93 1.433-2.676 3.418-4.96 5.953-6.848 2.534-1.887 5.555-3.342 9.063-4.364 3.506-1.02 7.36-1.531 11.559-1.531 3.686 0 7.104.491 10.253 1.474 3.148.982 6.08 2.65 8.793 4.998l-7.526 4.162"/></g></svg>