<svg width="579" height="405" xmlns="http://www.w3.org/2000/svg"><g fill="#FFF" fill-rule="evenodd"><path d="M391.51 198.029v-61.012H285.1v42.934h61.011v15.612a84.053 84.053 0 0 1-.727 9.998l43.437 16.226c1.638-7.548 2.537-15.467 2.689-23.758"/><path d="M223.268 152.219c0-29.444 1.094-49.507 3.287-60.19 1.916-10.133 5.819-18.417 11.709-24.856 4.792-6.162 11.093-11.298 18.898-15.406 7.668-3.971 16.845-6.092 27.527-6.368 14.515.276 26.84 4.451 36.977 12.53 9.722 8.494 16.434 18.764 20.131 30.813h48.069c-4.796-25.061-16.299-46.082-34.51-63.064C337.139 8.833 313.583.276 284.689 0c-23.556.276-43.21 5.89-58.956 16.845-16.023 10.819-27.665 23.144-34.922 36.976-4.52 7.26-7.877 16.777-10.066 28.553-2.054 11.78-3.081 35.06-3.081 69.845 0 34.238 1.027 57.383 3.081 69.433.367 2.16.768 4.186 1.198 6.1l44.605-15.787c-2.188-10.415-3.28-30.329-3.28-59.746M393.185 252.102l-38.212-8.029a1.109 1.109 0 0 0-1.191.534l-4.627 8.068a1.109 1.109 0 0 1-1.839.128l-7.897-10.182a1.108 1.108 0 0 0-.762-.423l-10.86-1.137c-1.048-.11-1.367-1.48-.478-2.042l17.586-11.101a1.111 1.111 0 0 1 1.059-.069l47.915 22.161c1.199.554.599 2.364-.694 2.092Zm-97.563 17.679-37.092-6.927a1.192 1.192 0 0 0-.837.153l-25.602 15.528c-.7.426-1.611.034-1.784-.768l-3.391-15.784a1.192 1.192 0 0 0-1.307-.934l-77.214 9.199c-1.402.167-1.879-1.811-.555-2.301l105.888-39.226a1.192 1.192 0 0 1 1.226.245l41.699 38.77c.875.813.144 2.264-1.031 2.045Zm45.577-55.504-35.851 23.518 22.068 34.976-71.479-60.927-225.604 79.845h518.083l-207.217-77.412Z"/><g><path d="M51.664 398.813c-6.766 3.614-14.33 5.422-22.695 5.422-4.235 0-8.121-.686-11.657-2.053-3.538-1.368-6.584-3.304-9.141-5.81-2.555-2.504-4.557-5.511-6.002-9.023C.723 383.838 0 379.94 0 375.653c0-4.388.723-8.377 2.169-11.967 1.445-3.588 3.447-6.648 6.002-9.179 2.557-2.529 5.603-4.479 9.141-5.848 3.536-1.368 7.422-2.052 11.657-2.052 4.182 0 8.106.504 11.773 1.51 3.666 1.007 6.945 2.802 9.837 5.383l-7.203 7.281c-1.756-1.704-3.887-3.021-6.391-3.95-2.505-.929-5.15-1.394-7.939-1.394-2.84 0-5.41.503-7.707 1.511-2.298 1.006-4.273 2.4-5.925 4.182-1.653 1.781-2.932 3.86-3.834 6.235-.904 2.375-1.356 4.932-1.356 7.668 0 2.944.452 5.655 1.356 8.133.902 2.479 2.181 4.622 3.834 6.429 1.652 1.809 3.627 3.228 5.925 4.26 2.297 1.034 4.867 1.55 7.707 1.55 2.479 0 4.814-.233 7.01-.698 2.194-.465 4.144-1.187 5.848-2.169v-12.935H30.673v-8.83h20.991v28.04M63.205 348.001h9.759v46.01h23.314v8.83H63.205V348M133.535 381.927l-8.443-22.308-8.598 22.308h17.041Zm-12.393-33.926h8.443l23.624 54.839h-11.154l-5.112-12.548h-23.779l-4.957 12.548H97.285l23.857-54.839ZM196.97 360.859c-2.013-2.169-3.963-3.615-5.847-4.338-1.886-.722-3.784-1.084-5.694-1.084-2.84 0-5.409.503-7.706 1.511-2.299 1.006-4.274 2.4-5.926 4.182-1.653 1.781-2.931 3.86-3.834 6.235-.904 2.375-1.355 4.932-1.355 7.668 0 2.944.451 5.655 1.355 8.133.903 2.479 2.181 4.622 3.834 6.429 1.652 1.809 3.627 3.228 5.926 4.26 2.297 1.034 4.866 1.55 7.706 1.55 2.22 0 4.377-.53 6.468-1.588s4.04-2.75 5.848-5.074l8.055 5.732c-2.478 3.408-5.499 5.887-9.062 7.435-3.563 1.55-7.358 2.325-11.386 2.325-4.235 0-8.121-.686-11.657-2.053-3.538-1.368-6.584-3.304-9.14-5.81-2.556-2.504-4.558-5.511-6.003-9.023-1.446-3.511-2.169-7.409-2.169-11.696 0-4.388.723-8.377 2.169-11.967 1.445-3.588 3.447-6.648 6.003-9.179 2.556-2.529 5.602-4.479 9.14-5.848 3.536-1.368 7.422-2.052 11.657-2.052 3.718 0 7.165.658 10.34 1.975 3.176 1.317 6.132 3.551 8.869 6.699l-7.591 5.578M235.311 348.001h9.759v46.01h23.314v8.83h-33.073V348M282.791 375.033c0 2.944.452 5.655 1.356 8.133.902 2.479 2.181 4.622 3.834 6.429 1.65 1.809 3.627 3.228 5.923 4.26 2.299 1.034 4.868 1.55 7.707 1.55 2.84 0 5.422-.516 7.747-1.55 2.324-1.032 4.31-2.451 5.964-4.26 1.653-1.807 2.93-3.95 3.834-6.429.903-2.478 1.356-5.189 1.356-8.133 0-2.736-.453-5.293-1.356-7.668-.904-2.375-2.181-4.454-3.834-6.235-1.654-1.782-3.64-3.176-5.964-4.182-2.325-1.008-4.907-1.511-7.747-1.511-2.839 0-5.408.503-7.707 1.511-2.296 1.006-4.273 2.4-5.923 4.182-1.653 1.781-2.932 3.86-3.834 6.235-.904 2.375-1.356 4.932-1.356 7.668Zm-10.224.62c0-4.388.723-8.377 2.169-11.967 1.445-3.588 3.447-6.648 6.002-9.179 2.557-2.529 5.603-4.479 9.14-5.848 3.536-1.368 7.423-2.052 11.657-2.052 4.285-.051 8.209.581 11.774 1.897 3.562 1.318 6.634 3.241 9.217 5.771 2.582 2.531 4.595 5.577 6.041 9.139 1.445 3.564 2.169 7.54 2.169 11.929 0 4.287-.724 8.185-2.169 11.696-1.446 3.512-3.459 6.533-6.041 9.063-2.583 2.53-5.655 4.505-9.217 5.925-3.565 1.42-7.489 2.155-11.774 2.208-4.234 0-8.121-.686-11.657-2.053-3.537-1.368-6.583-3.304-9.14-5.81-2.555-2.504-4.557-5.511-6.002-9.023-1.446-3.511-2.169-7.409-2.169-11.696ZM388.75 398.813c-6.765 3.614-14.329 5.422-22.694 5.422-4.235 0-8.121-.686-11.657-2.053-3.539-1.368-6.584-3.304-9.14-5.81-2.557-2.504-4.559-5.511-6.003-9.023-1.446-3.511-2.169-7.409-2.169-11.696 0-4.388.723-8.377 2.169-11.967 1.444-3.588 3.446-6.648 6.003-9.179 2.556-2.529 5.601-4.479 9.14-5.848 3.536-1.368 7.422-2.052 11.657-2.052 4.182 0 8.106.504 11.773 1.51 3.666 1.007 6.945 2.802 9.837 5.383l-7.203 7.281c-1.757-1.704-3.887-3.021-6.391-3.95-2.504-.929-5.15-1.394-7.939-1.394-2.84 0-5.409.503-7.707 1.511-2.298 1.006-4.274 2.4-5.925 4.182-1.653 1.781-2.932 3.86-3.834 6.235-.904 2.375-1.355 4.932-1.355 7.668 0 2.944.451 5.655 1.355 8.133.902 2.479 2.181 4.622 3.834 6.429 1.651 1.809 3.627 3.228 5.925 4.26 2.298 1.034 4.867 1.55 7.707 1.55 2.478 0 4.814-.233 7.01-.698 2.194-.465 4.144-1.187 5.848-2.169v-12.935H367.76v-8.83h20.99v28.04M400.059 402.84h9.759v-54.839h-9.759zM448.701 359.775c-1.033-1.497-2.414-2.595-4.143-3.292a14.463 14.463 0 0 0-5.461-1.046c-1.136 0-2.234.13-3.292.387a8.916 8.916 0 0 0-2.865 1.24 6.456 6.456 0 0 0-2.053 2.207c-.517.904-.775 1.975-.775 3.215 0 1.858.645 3.279 1.937 4.259 1.29.982 2.891 1.834 4.802 2.556a87.714 87.714 0 0 0 6.274 2.092 25.584 25.584 0 0 1 6.274 2.788c1.91 1.188 3.51 2.764 4.802 4.725 1.29 1.963 1.937 4.57 1.937 7.823 0 2.943-.543 5.512-1.627 7.707-1.084 2.195-2.544 4.015-4.376 5.461-1.834 1.446-3.964 2.53-6.391 3.253-2.427.722-4.983 1.085-7.668 1.085-3.408 0-6.687-.57-9.837-1.704-3.15-1.136-5.861-3.047-8.132-5.733l7.358-7.126a12.285 12.285 0 0 0 4.686 4.222 13.16 13.16 0 0 0 6.158 1.511c1.134 0 2.271-.156 3.408-.465a10.545 10.545 0 0 0 3.098-1.395 7.287 7.287 0 0 0 2.247-2.362c.567-.955.851-2.053.851-3.292 0-2.014-.646-3.563-1.936-4.648-1.291-1.084-2.893-2-4.802-2.75a77.909 77.909 0 0 0-6.274-2.129 26.381 26.381 0 0 1-6.275-2.749c-1.91-1.163-3.512-2.711-4.802-4.648-1.291-1.936-1.936-4.531-1.936-7.785 0-2.839.581-5.292 1.743-7.358a15.936 15.936 0 0 1 4.569-5.151c1.885-1.367 4.04-2.388 6.468-3.059a27.815 27.815 0 0 1 7.436-1.007c2.891 0 5.693.439 8.404 1.316 2.711.879 5.151 2.324 7.319 4.338l-7.126 7.514M477.515 356.831h-16.809v-8.83h43.376v8.83h-16.808v46.01h-9.759v-46.01M510.51 402.84h9.76v-54.839h-9.76zM569.919 360.859c-2.014-2.169-3.963-3.615-5.848-4.338-1.885-.722-3.783-1.084-5.693-1.084-2.84 0-5.409.503-7.707 1.511-2.298 1.006-4.273 2.4-5.925 4.182-1.653 1.781-2.931 3.86-3.834 6.235-.904 2.375-1.355 4.932-1.355 7.668 0 2.944.451 5.655 1.355 8.133.903 2.479 2.181 4.622 3.834 6.429 1.652 1.809 3.627 3.228 5.925 4.26 2.298 1.034 4.867 1.55 7.707 1.55 2.22 0 4.377-.53 6.468-1.588 2.092-1.058 4.04-2.75 5.847-5.074l8.056 5.732c-2.478 3.408-5.499 5.887-9.062 7.435-3.563 1.55-7.359 2.325-11.386 2.325-4.234 0-8.121-.686-11.657-2.053-3.538-1.368-6.584-3.304-9.14-5.81-2.557-2.504-4.559-5.511-6.003-9.023-1.446-3.511-2.169-7.409-2.169-11.696 0-4.388.723-8.377 2.169-11.967 1.444-3.588 3.446-6.648 6.003-9.179 2.556-2.529 5.602-4.479 9.14-5.848 3.536-1.368 7.423-2.052 11.657-2.052 3.718 0 7.165.658 10.341 1.975 3.175 1.317 6.131 3.551 8.868 6.699l-7.591 5.578"/></g></g></svg>